Patient4_TMGait_0pt3_02_right_01_EMG.mot
version=1
nRows=39
nColumns=33
inDegrees=no
endheader
time	1LAddLong	2LGlutMax	3LGlutMed	4LIliopsoas	5LSemiMemb	6LBicFemLong	7LRecFem	8LVastMed	9LVastLat	10LGasMed	11LTibAnt	12lTibPost	13LPeroneusLong	14LSol	15LExtDigLong	16LFlexDigLong	17RAddLong	18RGlutMax	19RGlutMed	20RIliopsoas	21RSemiMemb	22RBicFemLong	23RRecFem	24RVastMed	25RVastLat	26RGasMed	27RTibAnt	28RTibPost	29RPeroneusLong	30RSol	31RExtDigLong	32RFlexDigLong
0.967	0.002747	-0.34088	-0.045471	0.000916	-0.005493	-0.029449	-0.025787	-0.006104	0.021362	-0.018921	0.007629	0.002594	-0.034637	0.25864	0.007782	-0.05127	0.04425	-0.65491	-0.29678	0.02243	-0.10788	-0.20828	0.006256	-0.062256	0.085907	0.065002	-0.030365	0.033417	-0.55237	0.032806	-0.002899	-0.004578
0.968	0.007324	-0.32455	-0.036774	0.003967	0.00885	-0.001526	-0.008392	0	0.033875	-0.005798	-0.002441	-0.008392	-0.040436	0.14175	0.001068	-0.062408	0.007324	-0.63416	-0.11276	-0.007477	-0.14069	-0.21011	0.03952	-0.043488	0.032806	-0.027161	-0.055542	-0.007477	-0.041656	-0.047302	-0.001221	-0.001831
0.969	0.004425	-0.32333	-0.032959	0.004272	0.00885	0.024109	-0.011597	-0.00351	0.047302	0.00473	-0.007935	-0.014343	-0.027924	-0.12909	-0.010681	-0.036163	0.036774	-0.6517	-0.29587	-0.007019	-0.20081	-0.17944	0.028992	0.018311	-0.018463	-0.066528	-0.042725	-0.022278	0.69473	-0.027008	-0.002289	0.006409
0.97	0.007172	-0.25833	-0.037384	-0.001373	0.001373	0.022736	-0.019379	-0.005951	0.040588	0.008087	-0.00824	-0.024414	-0.009003	-0.070496	-0.001373	-0.067902	0.074921	-0.63217	-0.64743	0.015106	-0.26306	-0.13473	0.000763	0.002594	-0.033722	-0.10162	0.003052	-0.0383	0.33966	-0.032654	-0.001526	0.003357
0.971	0.007935	-0.24384	-0.022736	-0.002747	-0.016022	-0.045929	-0.009918	-0.005493	0.036011	0.005493	-0.00412	-0.035095	-0.006409	0.10468	0.00473	-0.064392	0.060883	-0.62973	-0.26581	-0.014954	-0.004272	0.025787	-0.033112	-0.059357	-0.036621	-0.12726	-0.003052	0.000305	0.009613	0.066223	0	-0.000763
0.972	0.007172	-0.23178	-0.017853	0.002289	-0.014648	-0.121	-0.019379	0.002594	0.032959	0.005493	-0.006256	-0.027313	-0.010529	0.1741	0.020447	-0.076904	-0.057831	-0.61798	-0.13809	-0.014954	-0.0914	0.13916	-0.065155	-0.054779	0.37567	-0.16571	-0.019989	-0.00946	-0.048981	0.079803	-0.000458	0.000305
0.973	0.005341	-0.18433	-0.024719	-0.00412	0.009766	-0.11917	-0.012665	-0.001526	0.021362	0.001984	-0.006561	-0.027924	-0.023193	0.14297	0.001984	-0.050201	-0.099487	-0.54123	-0.21942	0.003357	0.12421	0.39536	-0.093079	-0.11765	0.61859	-0.005798	-0.053864	0.06424	0.11993	0.20142	-0.003052	0.003204
0.974	0.004425	-0.14725	-0.030518	0.009766	0.018616	-0.074615	-0.001221	0.009766	0.006409	-0.005188	0.005188	-0.012512	-0.015564	0.077515	0.001831	-0.042419	-0.083008	-0.43594	-0.11231	-0.007019	0.20844	0.48675	-0.16129	-0.12253	0.46722	0.071716	-0.040741	-0.019836	0.18326	0.12283	-0.002899	0.003357
0.975	0.003204	-0.095825	-0.020447	0.002441	0.044556	-0.034332	-0.010986	0.002899	0.003204	0.005951	-0.005188	-0.016022	-0.011597	0.066833	0.005646	-0.039673	-0.055084	-0.33493	0.036926	-0.030975	0.068512	0.22171	-0.13321	-0.11108	0.23071	0.057678	-0.001526	-0.05249	0.15198	0.093994	-0.003662	-0.002441
0.976	0.00824	-0.12283	-0.020599	0.007019	0.050812	0.045319	-0.003204	0.007629	0.015564	-0.006866	-0.003815	-0.015869	-0.021973	0.077362	0.005035	-0.041046	-0.001068	-0.30212	-0.10757	0	0.067444	-0.11337	-0.045471	-0.095062	-0.083771	-0.024414	0.008698	0.007935	-0.038452	0.23621	0.000458	0
0.977	0.006561	-0.10208	0.002747	-0.000305	0.04715	0.12009	-0.002899	0.045929	0.020142	-0.002594	-0.003662	-0.015717	-0.020752	-0.1831	-0.002136	-0.053864	0.02655	-0.36514	-0.24994	-0.011444	0.056152	-0.18082	-0.041962	0.17746	-0.29159	-0.14145	0.030518	-0.023346	-0.22659	0.27832	-0.001068	-0.004425
0.978	0.005493	-0.056152	-0.005035	0.004425	0.032501	0.039368	0.002594	-0.070343	0.021057	-0.018768	-0.005493	-0.001068	-0.030365	-0.21683	0.01297	-0.044556	-0.018921	-0.42099	0.1265	-0.015411	0.033569	-0.12451	0.09079	0.19196	-0.49896	-0.11322	0.007019	-0.032806	-0.10788	0.087433	0.001221	-0.007019
0.979	0.006714	0.025635	-0.00351	-0.002441	0.053711	0.039063	-0.006409	0.00351	0.028687	-0.013428	-0.005646	0.042572	-0.014496	-0.001678	0.013123	-0.033569	-0.012817	-0.42969	0.24612	0.039368	0.009613	-0.047455	0.25955	0.13596	-0.39124	-0.052032	-0.038605	0.007629	0.2095	-0.13092	0.001526	-0.010986
0.98	0.002899	0.03067	0.016174	-0.003662	0.029907	0.032654	0.006866	-0.016479	0.035248	-0.013123	-0.003357	0.050201	-0.018158	0.088348	0.005493	-0.03418	0.007019	-0.45288	0.060425	0.053864	-0.076904	0.079651	0.2446	0.13016	-0.11307	0.005493	-0.005646	-0.027618	0.401	-0.27832	0.001678	-0.008545
0.981	0.006866	0.064697	0.015259	0.001068	0.017853	-0.000763	-0.016022	0.004272	0.02594	0.000916	-0.007019	0.03006	-0.01709	0.074921	-0.000305	-0.022278	0.020447	-0.48431	0.30243	0.02594	-0.10254	0.17899	0.15121	0.15793	-0.031891	0.019073	0.023041	0.055695	0.057526	-0.24384	0.000153	-0.005493
0.982	0.003815	0.14984	0.015869	0.013733	0.023041	-0.001984	0.000305	0.003967	0.03418	0.002441	-0.00061	0.016174	-0.020447	0.058594	0.002594	-0.004272	-0.006104	-0.43854	0.1506	0.018616	-0.18646	0.16083	0.13641	0.13184	-0.00473	0.21332	0.026245	0.20111	0.11566	-0.74829	-0.000763	-0.000458
0.983	0.007477	0.17181	0.014343	0.002289	0.027313	-0.013885	0.014954	0.001984	0.033264	0.005951	-0.006866	0.005035	-0.021973	0.017853	-0.001221	0.00885	-0.026703	-0.51682	0.041046	0.037689	-0.009613	-0.005341	0.028076	0.034485	-0.00473	0.23315	0.056152	0.005341	-0.005646	-0.79575	0.000458	-0.005798
0.984	0.002289	0.18433	0.020752	0.00412	0.023041	-0.005493	-0.009003	0.002136	0.028381	-0.000916	-0.00885	-0.020905	-0.016632	-0.005798	-0.006104	-0.005341	-0.030212	-0.4631	-0.15396	0.006256	0.24216	-0.14008	-0.067596	0.065613	0.006256	0.085602	0.10529	-0.121	0.60471	-0.008392	0.003357	-0.013275
0.985	-0.003357	0.23987	0.035095	-0.018005	0.01358	0.001984	-0.000458	0.004272	0.033112	0.005798	-0.006866	-0.03418	-0.016479	-0.010071	-0.003967	-0.00412	-0.009308	-0.48126	0.060272	-0.032501	0.22949	-0.28183	0.006714	-0.018463	0.033264	0.031433	0.072937	0.024719	0.34882	0.21072	-0.001678	-0.004578
0.986	-0.00473	0.30014	0.035553	0.002441	0.021667	-0.003967	-0.008087	0.00412	0.031281	0.001221	-0.00885	-0.037689	-0.015564	-0.031128	0.001221	-0.006256	0.033264	-0.51865	0.57114	-0.078888	0.10666	-0.56213	-0.001984	-0.064392	0.033722	0.03067	0.001526	0.008087	0.046539	0.098114	-0.000153	0.002747
0.987	-0.00061	0.30426	0.034027	0.005951	0.02121	-0.007019	-0.001526	0.007935	0.037231	0.006104	-0.006104	-0.041962	-0.007324	-0.025482	-0.005798	0.002289	0.021362	-0.54718	0.45517	-0.062256	-0.053558	-0.6366	-0.001678	-0.079041	0.029297	0.048218	-0.043793	0.013885	-0.32074	0.24399	-0.000305	0.005646
0.988	0.00061	0.33691	0.033264	-0.007935	0.012512	-0.024109	-0.001068	0.003662	0.039825	0.000916	-0.00061	-0.044556	-0.013123	-0.036774	-0.002289	-0.008087	0.00824	-0.58518	0.34134	0.004578	-0.35599	-0.39856	-0.025482	0.003357	0.030975	0.0383	0.030212	0.001373	-0.37705	0.21866	-0.001678	0.004883
0.989	-0.008087	0.35919	0.031433	0.001678	0.007782	-0.025024	-0.010223	-0.001068	0.034332	0.000153	-0.004883	-0.047302	-0.011597	-0.032501	-0.005951	-0.005646	-0.005035	-0.45898	0.36636	0.025024	-0.26428	-0.27557	-0.014648	0.059967	0.030365	0.064087	0.052795	-0.001068	-0.37842	0.088654	-0.000916	-0.005493
0.99	0.001221	0.39078	0.028076	0.004883	0.015106	-0.041199	0.006866	0.006714	0.049286	0.000916	-0.001984	-0.04837	-0.018158	-0.04425	-0.005798	-0.013275	-0.016479	-0.48996	0.24384	0.079651	-0.081482	-0.050049	0.035095	0.002747	0.010834	0.060425	-0.088501	-0.018768	0.20889	0.068054	-0.007629	-0.009308
0.991	-0.00412	0.42236	0.028229	0.000153	0.016632	-0.053558	-0.000305	0.006104	0.06073	-0.000305	-0.002441	-0.049744	-0.005341	-0.03891	-0.000458	-0.000916	0.016937	-0.42648	-0.30289	0.11124	-0.079498	-0.027008	0.071869	-0.063171	0.002747	0.035095	-0.13763	-0.023499	-0.63446	0.085602	-0.000153	-0.004578
0.992	0.004883	0.4097	0.044098	0.015259	0.010681	-0.052032	-0.010223	0.000305	0.065918	-0.012665	-0.000153	-0.047607	-0.010986	-0.021667	-0.00824	0.00061	0.037079	-0.47638	-0.10971	0.01358	-0.091858	-0.18646	0.09079	-0.052338	0.023193	0.020294	-0.13382	-0.036163	-0.25223	-0.000153	-0.003967	-0.005493
0.993	0.001678	0.43503	0.039978	0.014648	0.005951	-0.070038	-0.001068	0.000305	0.059204	-0.039368	-0.013733	-0.048981	-0.01236	-0.031281	-0.010223	-0.000916	0.018005	-0.53116	0.094299	0.025482	0.004883	-0.20309	0.024719	-0.054474	0.050354	-0.009003	0.12283	-0.025635	-0.59616	-0.17929	0.001373	-0.011597
0.994	0.009155	0.41809	0.050659	-0.000916	0.020142	-0.081635	-0.006866	0.004578	0.047913	-0.042114	-0.02243	-0.039368	-0.010986	-0.036926	0.007324	0.00061	0.007629	-0.51193	-0.121	0.03952	-0.023804	-0.16647	0.011902	-0.010071	0.06958	-0.027618	0.07782	0.013275	0.39078	-0.080261	0.000458	-0.006104
0.995	0.006409	0.45807	0.05188	0.011597	0.015564	-0.06485	-0.033722	0.005646	0.053253	-0.039673	-0.012665	-0.046387	-0.002441	-0.054169	-0.005798	0.006866	0.024872	-0.48904	-0.401	0.05188	-0.21133	-0.28778	-0.01236	-0.032654	0.061798	-0.002441	-0.11276	-0.001068	-0.35934	-0.09964	-0.000458	-0.000916
0.996	0.002136	0.45654	0.057983	0.004578	0.010529	-0.012817	0.002747	0.006256	0.059814	-0.040588	-0.007935	-0.047913	-0.001068	-0.060577	-0.006561	0.005951	0.040894	-0.46539	-0.24368	0.059509	-0.29358	-0.26047	-0.026245	-0.00412	0.062256	-0.006104	-0.11276	-0.008087	-0.66498	0.052948	0.001373	-0.009155
0.997	0.005951	0.44662	0.063324	-0.016174	0.010986	-0.036163	0.024109	0.003357	0.053101	-0.004883	-0.009308	-0.045624	-0.012207	-0.050201	-0.005035	0.014648	-0.011597	-0.49271	-0.11704	0.030518	-0.2002	-0.071259	0.002899	-0.016632	0.065002	-0.034943	-0.083008	-0.017395	0.83298	0.14984	0.002289	-0.011902
0.998	-0.003204	0.45822	0.046539	-0.01236	0.018005	-0.018768	0.026855	0.009155	0.059357	0.042267	-0.011444	-0.044403	0.003052	-0.04837	-0.018463	0.014801	-0.023193	-0.50262	0.11612	-0.020447	0.34973	0.14755	0.008545	-0.00412	0.05127	-0.045013	-0.054016	-0.023193	0.14221	0.12177	-0.001831	-0.010071
0.999	0.003357	0.45029	0.05249	-0.002747	0.008698	-0.016327	0.007019	0.006866	0.050812	0.03952	-0.009918	-0.045776	0.001373	-0.040894	-0.029907	0.004272	-0.038757	-0.47745	0.005798	-0.056763	0.37003	0.31097	0.074768	-0.042114	0.049591	-0.046234	-0.035248	-0.019073	0.016327	-0.03067	-0.000153	-0.010529
1	-0.011139	0.44693	0.049438	0.009918	0.020447	-0.002899	0.003662	-0.001373	0.041809	0.020599	-0.011139	-0.046539	-0.008392	-0.018463	-0.007019	0.014343	-0.018311	-0.45761	-0.070648	-0.073853	0.054932	0.15167	0.046997	-0.045929	0.063019	-0.065918	-0.061035	-0.020752	0.41504	0.014648	-0.003357	-0.006561
1.001	0.001678	0.45425	0.059967	0.015411	0.013275	-0.003662	0.012207	0.002594	0.043335	0.002136	-0.01297	-0.051117	-0.008087	-0.018158	0.00412	0.000153	-0.012665	-0.42541	-0.056305	-0.021362	0.087433	-0.036316	0.066223	-0.002594	0.037689	-0.024414	-0.077515	-0.022888	0.6723	-0.05188	-0.006104	-0.004425
1.002	-0.002899	0.43991	0.05722	0.015411	0.024872	0.000305	0.009308	0.004578	0.034027	0.009613	-0.014801	-0.054016	0.005188	-0.093689	0.000916	0.019836	-0.010071	-0.43655	-0.23422	-0.033417	0.039825	-0.11688	0.041046	0.030365	0.028839	0.039063	-0.047607	0.061951	0.25375	-0.084229	-0.004272	-0.00061
1.003	-0.00412	0.44479	0.058289	0.004425	0.026093	0.002594	0.030365	0.002441	0.018005	0.009003	-0.006714	-0.061188	-0.003052	-0.11108	-0.002747	0.012665	-0.012817	-0.47699	0.1445	-0.093689	0.036316	-0.18494	0.080261	0.012512	-0.028381	-0.010986	-0.023499	0.027466	-0.067596	-0.085907	-0.000305	-0.006256
1.004	-0.000153	0.45502	0.059662	-0.002747	0.013123	-0.006104	0.039368	0.00412	0.035706	0.003204	-0.011292	-0.055084	0.00061	-0.099487	-0.002747	0.010071	-0.016479	-0.51041	-0.027008	-0.018005	-0.029144	-0.1268	0.052948	-0.023346	-0.063782	-0.041962	-0.016785	-0.027466	-0.006256	0.020142	-0.002594	0.000305
1.005	-0.004883	0.42801	0.066223	-0.009918	0.011597	0.001221	0.013885	0.003204	0.024109	0.007019	-0.004272	-0.061798	-0.005493	-0.044861	-0.000153	0.007019	-0.023193	-0.55878	-0.1593	0.000458	0.028687	-0.013733	0.067444	-0.000458	-0.064697	-0.085144	-0.028992	-0.038605	0.2298	0.071869	-0.000916	0.000763
